<?xml version="1.0" standalone="no"?>
<!DOCTYPE svg PUBLIC "-//W3C//DTD SVG 20010904//EN"
 "http://www.w3.org/TR/2001/REC-SVG-20010904/DTD/svg10.dtd">
<svg version="1.0" xmlns="http://www.w3.org/2000/svg"
 width="130" height="80" viewBox="0 0 1765.000000 846.000000"
 preserveAspectRatio="xMidYMid meet">
<metadata>
Created by potrace 1.15, written by Peter Selinger 2001-2017
</metadata>
<g transform="translate(0.000000,846.000000) scale(0.100000,-0.100000)"
fill="#000000" stroke="none">
<path d="M1620 7914 c-14 -2 -56 -9 -95 -15 -169 -27 -390 -120 -538 -227
-204 -146 -378 -372 -457 -591 -96 -264 -120 -526 -120 -1317 l0 -472 232 -6
c128 -3 766 -8 1416 -12 l1184 -5 -5 638 c-5 673 -10 759 -57 977 -27 124 -57
212 -110 316 -152 303 -432 544 -760 654 -148 49 -212 58 -445 61 -121 2 -231
2 -245 -1z m331 -808 c144 -31 244 -109 289 -226 l25 -65 0 -420 0 -420 -24
-60 c-29 -72 -109 -157 -178 -187 -91 -40 -148 -47 -386 -48 -216 0 -231 1
-258 21 l-29 20 0 673 c0 709 -1 689 45 714 31 17 434 15 516 -2z"/>
<path d="M1600 6400 l0 -530 153 0 c173 0 215 12 260 71 43 58 47 93 47 457 0
385 -4 414 -59 472 -48 51 -89 60 -258 60 l-143 0 0 -530z"/>
<path d="M13890 7439 c-19 -4 -43 -17 -52 -29 -17 -21 -18 -77 -18 -962 0
-625 3 -946 10 -959 13 -24 61 -49 95 -49 30 0 85 26 102 49 9 11 12 72 13
206 l0 190 100 90 c55 50 105 91 112 92 7 2 42 -41 78 -94 201 -300 353 -520
368 -530 50 -40 162 30 162 100 0 8 -82 133 -182 278 -100 145 -201 292 -225
327 -23 35 -43 65 -43 67 0 2 82 77 183 165 100 89 188 174 196 189 37 76 -86
160 -154 105 -13 -10 -151 -135 -307 -276 l-283 -257 -5 632 c-3 348 -7 633
-8 634 -26 25 -98 41 -142 32z"/>
<path d="M3864 7356 c-17 -8 -34 -21 -38 -31 -8 -21 -8 -1818 0 -1840 16 -41
50 -45 349 -45 323 0 393 9 510 65 113 54 188 139 237 271 22 58 23 69 26 594
3 581 1 612 -53 728 -51 110 -173 207 -315 249 -77 23 -669 30 -716 9z m687
-222 c80 -38 129 -94 159 -182 20 -62 21 -76 18 -565 -4 -575 -1 -560 -93
-653 -78 -79 -109 -86 -372 -92 l-223 -4 0 767 0 767 223 -4 222 -3 66 -31z"/>
<path d="M5363 7355 c-17 -7 -36 -22 -42 -34 -13 -23 -16 -1818 -3 -1837 12
-19 70 -44 102 -44 38 0 86 24 100 49 6 13 10 260 10 723 l0 703 199 -383
c109 -211 209 -394 222 -408 30 -32 87 -33 116 -1 12 12 94 159 183 327 90
168 180 337 201 375 l39 70 0 -695 c0 -775 -4 -729 69 -751 48 -14 105 -5 132
22 19 19 19 41 19 927 0 1005 5 939 -66 962 -56 19 -100 5 -153 -48 -37 -38
-88 -127 -253 -442 -114 -217 -210 -403 -214 -412 -3 -10 -9 -18 -13 -18 -3 0
-32 51 -63 113 -127 250 -375 715 -397 745 -28 36 -94 72 -132 72 -13 -1 -38
-7 -56 -15z"/>
<path d="M7665 7358 c-47 -25 -45 9 -45 -954 0 -1009 -5 -931 66 -954 46 -15
100 -5 130 25 l24 24 0 401 0 401 150 -2 149 -1 54 -101 c30 -56 114 -219 187
-362 166 -324 186 -361 213 -380 62 -44 176 13 177 88 0 18 -72 165 -195 399
-107 204 -195 374 -195 379 0 4 19 13 42 20 119 32 225 111 276 208 78 145 86
392 18 551 -58 137 -214 234 -417 259 -113 15 -608 14 -634 -1z m672 -212 c78
-25 133 -71 168 -141 25 -50 30 -73 33 -156 7 -158 -36 -258 -134 -315 -75
-44 -139 -54 -361 -54 l-203 0 0 346 0 346 223 -4 c171 -4 234 -9 274 -22z"/>
<path d="M11079 6733 c-22 -20 -52 -56 -66 -80 -13 -23 -27 -43 -29 -43 -3 0
-21 11 -42 24 -130 85 -363 92 -512 16 -53 -27 -134 -104 -164 -154 -39 -67
-56 -147 -56 -266 0 -161 34 -263 114 -343 l32 -33 -49 -44 c-57 -51 -77 -91
-77 -155 0 -62 31 -119 80 -147 38 -22 51 -38 31 -38 -5 0 -36 -20 -69 -44
-48 -36 -67 -58 -92 -110 -30 -60 -32 -72 -28 -138 10 -151 104 -249 299 -310
65 -20 94 -23 239 -23 145 0 174 3 240 23 188 59 284 162 297 320 9 105 -14
171 -85 242 -49 48 -69 61 -137 83 -83 27 -257 61 -380 72 -171 17 -251 92
-180 169 28 31 26 30 106 10 85 -22 232 -15 313 14 111 41 205 122 251 219 60
128 57 345 -6 471 l-32 63 33 34 c18 19 54 44 79 55 53 25 71 44 71 77 0 40
-42 73 -95 73 -38 0 -51 -6 -86 -37z m-282 -205 c56 -26 106 -85 126 -149 19
-59 23 -232 7 -291 -32 -112 -131 -188 -244 -188 -113 1 -178 40 -226 135 -57
112 -51 311 11 409 66 105 205 141 326 84z m-109 -1108 c53 -6 121 -18 150
-26 62 -17 147 -67 157 -92 45 -107 8 -210 -92 -264 -73 -39 -143 -52 -247
-45 -133 8 -207 40 -262 113 -52 68 -41 188 23 246 32 29 126 78 151 78 12 0
66 -5 120 -10z"/>
<path d="M9408 6700 c-123 -21 -230 -79 -311 -170 -106 -118 -127 -195 -127
-465 0 -292 26 -373 151 -489 106 -99 221 -144 389 -153 130 -7 243 13 336 58
118 58 153 127 96 190 -37 42 -61 40 -163 -10 -101 -49 -186 -64 -289 -50 -94
13 -150 38 -210 95 -63 59 -90 127 -90 224 l0 70 304 0 c167 0 328 5 357 10
97 18 139 69 146 178 10 143 -33 260 -136 363 -80 80 -166 126 -271 145 -83
15 -113 15 -182 4z m185 -186 c26 -9 68 -35 95 -59 61 -55 95 -123 100 -201 4
-57 2 -62 -23 -82 -27 -21 -36 -22 -301 -22 l-274 0 0 74 c0 40 5 88 12 107
27 80 102 155 185 185 52 18 150 17 206 -2z"/>
<path d="M11924 6696 c-34 -8 -77 -22 -95 -31 -50 -26 -116 -82 -136 -115 -9
-17 -21 -30 -25 -30 -4 0 -8 29 -8 65 0 63 -1 66 -32 85 -18 11 -49 20 -68 20
-19 0 -50 -9 -67 -20 l-33 -20 0 -578 0 -579 24 -22 c37 -35 102 -39 146 -9
l35 24 6 389 c6 413 8 431 57 503 107 159 318 174 447 30 82 -92 79 -73 85
-521 l5 -399 23 -19 c49 -39 159 -32 183 13 6 12 9 172 7 431 -3 406 -3 413
-27 470 -54 135 -165 251 -283 295 -73 27 -169 34 -244 18z"/>
<path d="M13120 6704 c-71 -8 -146 -27 -190 -49 -53 -27 -120 -95 -149 -153
-32 -63 -46 -166 -32 -233 26 -123 106 -195 276 -249 173 -54 219 -72 265
-102 66 -43 84 -72 88 -143 6 -114 -57 -165 -212 -173 -133 -7 -212 16 -344
100 -41 25 -73 15 -97 -33 -67 -128 175 -261 450 -246 275 14 417 148 403 382
-7 101 -36 164 -108 228 -55 50 -102 70 -275 122 -199 59 -255 101 -255 195 0
53 24 97 72 133 78 60 207 61 357 3 102 -39 124 -38 154 14 25 42 22 87 -9
115 -61 57 -264 103 -394 89z"/>
<path d="M15335 6701 c-170 -22 -285 -85 -285 -155 0 -38 31 -91 58 -98 10 -3
59 11 108 30 81 32 99 36 189 36 84 1 106 -3 141 -21 93 -49 149 -149 161
-284 l6 -66 -164 -7 c-321 -13 -487 -74 -549 -201 -29 -59 -39 -144 -29 -227
21 -169 134 -271 314 -285 133 -11 258 36 370 139 l65 60 0 -64 c0 -55 4 -68
24 -87 50 -47 155 -32 177 26 18 46 6 794 -14 858 -70 229 -201 334 -437 349
-41 2 -102 1 -135 -3z m373 -793 c-5 -108 -17 -136 -86 -204 -68 -67 -150
-104 -233 -104 -126 0 -199 66 -199 183 0 160 98 213 399 216 l123 1 -4 -92z"/>
<path d="M16732 6700 c-81 -12 -172 -62 -230 -125 l-50 -54 -4 60 c-5 70 -25
97 -81 106 -46 7 -77 -1 -105 -27 l-22 -21 0 -872 c1 -670 3 -876 13 -888 20
-26 53 -39 100 -39 36 0 51 6 76 29 l31 29 0 357 0 358 42 -48 c133 -151 346
-188 514 -90 76 44 161 141 205 230 31 65 41 99 50 180 17 144 7 391 -20 476
-53 170 -192 299 -358 334 -74 16 -83 16 -161 5z m143 -221 c59 -30 131 -105
157 -163 22 -48 23 -64 23 -251 0 -195 -1 -202 -26 -255 -34 -72 -97 -136
-166 -167 -45 -21 -66 -24 -121 -21 -37 2 -84 12 -104 22 -54 26 -124 91 -154
142 l-25 43 3 233 c3 230 3 234 30 283 75 142 249 203 383 134z"/>
<path d="M410 4533 c0 -822 14 -1050 81 -1313 88 -344 346 -657 679 -825 80
-41 250 -97 345 -116 112 -22 536 -19 643 4 320 71 599 246 788 495 90 120
186 317 218 452 65 268 76 445 76 1241 l0 627 -362 6 c-200 3 -837 8 -1415 12
l-1053 5 0 -588z m1184 94 c17 -20 66 -105 108 -189 43 -84 100 -195 127 -247
l48 -93 20 33 c11 19 71 128 134 242 63 115 128 224 144 243 35 41 88 57 141
42 64 -17 63 -5 55 -661 l-6 -589 -25 -20 c-20 -16 -35 -19 -78 -16 -91 8 -86
-22 -83 465 1 235 0 426 -2 423 -3 -3 -55 -94 -116 -203 -139 -247 -130 -233
-160 -247 -18 -8 -31 -8 -53 1 -23 9 -43 42 -108 168 -44 86 -96 189 -117 229
l-38 73 -6 -103 c-4 -57 -7 -248 -8 -426 l-1 -323 -25 -24 c-43 -44 -149 -28
-162 23 -10 40 7 1161 18 1191 16 43 38 53 103 49 54 -4 63 -8 90 -41z"/>
<path d="M12445 4824 c-16 -8 -33 -21 -37 -27 -4 -7 -8 -380 -8 -829 l0 -817
26 -20 c53 -42 150 -36 194 11 20 21 20 35 20 826 0 532 -3 810 -10 823 -25
46 -125 64 -185 33z"/>
<path d="M14954 4789 c-23 -5 -51 -20 -63 -33 -16 -17 -87 -235 -258 -789
-218 -712 -234 -768 -221 -793 17 -37 65 -63 125 -70 80 -10 91 5 148 206 l49
170 284 -2 284 -3 30 -100 c16 -55 38 -131 49 -168 11 -38 29 -77 40 -88 25
-25 81 -25 138 1 50 23 70 45 71 77 0 13 -33 132 -74 265 -41 134 -122 401
-181 593 -59 193 -129 420 -155 505 -26 86 -52 165 -58 177 -24 43 -130 70
-208 52z m176 -714 c61 -208 110 -384 110 -392 0 -10 -43 -13 -225 -13 -124 0
-225 3 -225 8 0 7 56 202 136 472 18 63 46 159 61 212 15 53 29 96 31 94 1 -2
52 -173 112 -381z"/>
<path d="M16171 4779 c-276 -49 -415 -211 -398 -464 12 -185 108 -306 312
-394 285 -123 365 -176 408 -270 27 -61 27 -152 0 -212 -44 -99 -175 -151
-326 -130 -90 13 -159 46 -237 114 -87 76 -134 77 -179 3 -24 -39 -27 -95 -7
-135 37 -70 177 -157 304 -188 92 -22 277 -21 361 1 219 59 333 201 348 432
11 174 -46 323 -157 411 -76 60 -132 91 -300 163 -229 99 -285 150 -284 259 0
105 52 166 165 197 110 29 218 16 364 -45 79 -33 104 -32 136 5 18 21 39 77
39 105 0 48 -88 108 -198 135 -73 18 -281 26 -351 13z"/>
<path d="M10490 4761 c-128 -34 -228 -105 -277 -197 -61 -114 -63 -136 -63
-622 0 -250 4 -462 10 -493 17 -90 74 -194 133 -240 107 -85 211 -119 367
-119 269 0 446 120 501 340 20 79 20 930 0 1010 -42 169 -162 282 -345 325
-82 20 -244 18 -326 -4z m293 -217 c80 -28 131 -101 147 -209 12 -90 13 -709
0 -798 -23 -161 -110 -231 -281 -231 -91 0 -154 27 -199 83 -55 71 -60 114
-60 543 0 235 4 406 11 437 22 104 88 169 192 191 51 11 135 3 190 -16z"/>
<path d="M11660 4186 c-76 -22 -98 -34 -143 -75 -95 -88 -132 -250 -80 -356
22 -43 82 -104 127 -127 21 -11 91 -35 155 -55 121 -37 208 -79 227 -110 37
-61 19 -139 -38 -169 -43 -23 -173 -30 -236 -14 -26 7 -80 30 -120 52 -94 50
-119 48 -149 -11 -15 -29 -20 -53 -17 -70 23 -98 235 -181 429 -167 137 10
226 44 292 114 56 59 68 96 68 207 0 119 -16 157 -95 228 -47 42 -67 51 -224
102 -137 44 -179 62 -202 86 -51 53 -31 128 47 174 56 33 162 28 276 -14 86
-31 94 -32 116 -18 27 18 57 74 57 107 0 32 -48 72 -121 99 -53 20 -87 24
-194 27 -89 3 -144 0 -175 -10z"/>
<path d="M13187 4180 c-165 -58 -287 -195 -316 -354 -14 -75 -14 -286 -1 -357
46 -240 288 -416 527 -382 209 30 388 203 414 399 11 90 11 242 -1 322 -21
148 -123 281 -269 351 -71 33 -83 36 -186 39 -90 2 -120 -1 -168 -18z m238
-209 c50 -22 99 -71 126 -123 18 -36 20 -55 17 -212 -3 -172 -3 -173 -33 -222
-61 -98 -176 -139 -280 -100 -49 19 -109 80 -132 135 -20 47 -29 257 -14 335
29 153 186 247 316 187z"/>
<path d="M7190 1932 c-47 -25 -83 -93 -76 -146 9 -74 68 -128 138 -128 90 0
152 59 152 144 0 110 -117 181 -214 130z m112 -66 c25 -19 39 -62 29 -89 -27
-71 -127 -65 -145 9 -7 26 15 79 36 87 24 10 63 6 80 -7z"/>
<path d="M13320 1860 c-11 -22 -23 -40 -26 -40 -2 0 -24 10 -47 22 -28 14 -67
23 -118 26 -137 8 -229 -36 -279 -134 l-25 -49 0 -335 c0 -304 2 -338 18 -368
18 -33 18 -33 -12 -97 -17 -36 -31 -67 -31 -70 0 -3 16 -5 35 -5 30 0 37 5 54
39 l20 39 47 -24 c40 -20 62 -24 143 -24 143 0 208 35 263 140 23 44 23 49 23
365 0 288 -2 325 -19 370 l-18 51 31 62 c17 34 31 64 31 67 0 3 -16 5 -35 5
-30 0 -37 -5 -55 -40z m-115 -95 c20 -8 38 -21 41 -28 3 -8 -70 -165 -163
-348 l-168 -334 -3 285 c-1 157 0 299 3 316 7 39 38 80 79 105 39 24 160 26
211 4z m95 -402 c0 -153 -5 -295 -9 -317 -12 -48 -64 -103 -111 -116 -73 -20
-171 -6 -216 31 -10 8 23 83 154 345 92 184 170 334 174 334 5 0 8 -125 8
-277z"/>
<path d="M280 1353 l0 -503 45 0 45 0 0 215 0 215 63 0 62 0 135 -215 135
-214 53 -1 c47 0 52 2 43 18 -6 9 -66 105 -135 212 -99 153 -122 196 -108 198
97 18 169 71 205 151 16 36 21 67 21 141 0 111 -21 168 -81 221 -64 55 -88 61
-295 63 l-188 2 0 -503z m384 397 c23 -11 52 -36 66 -56 21 -32 24 -48 24
-123 0 -68 -4 -94 -19 -120 -43 -74 -91 -89 -267 -83 l-98 3 0 200 0 199 127
0 c106 0 133 -3 167 -20z"/>
<path d="M3388 1601 c0 -144 -1 -315 -1 -381 0 -66 1 -176 1 -245 l2 -125 40
0 40 0 0 500 0 500 -24 0 c-13 0 -31 3 -40 6 -14 6 -16 -21 -18 -255z"/>
<path d="M6330 1353 l0 -503 45 0 45 0 0 215 0 215 63 0 63 0 114 -181 c63
-100 124 -197 135 -215 19 -32 24 -34 73 -34 40 0 51 3 46 13 -8 14 -168 264
-225 352 -33 51 -36 60 -21 63 97 18 169 71 205 151 16 36 21 67 21 141 0 113
-20 167 -79 219 -69 60 -90 65 -297 66 l-188 1 0 -503z m367 406 c50 -19 91
-68 104 -124 15 -67 4 -154 -24 -196 -39 -58 -67 -67 -217 -70 l-135 -3 -3
202 -2 202 124 0 c69 0 137 -5 153 -11z"/>
<path d="M8000 1684 l0 -176 -30 25 c-43 36 -94 50 -164 45 -87 -7 -157 -57
-186 -132 -6 -16 -10 -119 -10 -240 0 -204 1 -215 23 -257 13 -24 43 -57 66
-74 36 -25 54 -30 115 -33 79 -4 117 8 168 55 l26 25 24 -36 c13 -20 31 -36
41 -36 16 0 17 30 17 489 0 269 -3 496 -6 505 -4 11 -19 16 -45 16 l-39 0 0
-176z m-62 -204 c55 -34 62 -66 62 -275 0 -201 -5 -224 -56 -264 -37 -29 -145
-30 -192 -1 -55 33 -62 66 -62 272 0 203 6 230 65 268 42 28 138 27 183 0z"/>
<path d="M13575 1850 c-20 -7 -20 -15 -17 -504 l2 -496 40 0 40 0 0 504 0 504
-22 -1 c-13 0 -32 -3 -43 -7z"/>
<path d="M5628 1591 c-108 -22 -189 -116 -196 -227 -9 -143 82 -250 223 -261
79 -7 133 11 188 62 72 66 101 189 64 276 -44 106 -168 172 -279 150z"/>
<path d="M12093 1582 c-110 -39 -173 -124 -173 -233 0 -261 352 -346 466 -112
97 197 -88 416 -293 345z"/>
<path d="M1115 1572 c-43 -15 -87 -48 -113 -86 l-27 -39 -3 -226 c-3 -221 -3
-227 21 -271 13 -25 43 -58 66 -75 37 -26 53 -30 123 -34 45 -2 98 2 119 8 75
23 129 90 143 178 7 47 6 48 -45 57 l-36 6 -5 -52 c-5 -45 -11 -57 -43 -85
-35 -30 -44 -33 -104 -33 -122 0 -161 47 -161 194 l0 86 198 2 197 3 0 105
c-1 131 -24 187 -95 235 -40 27 -54 30 -130 32 -47 1 -94 -1 -105 -5z m182
-92 c46 -27 63 -68 63 -145 l0 -65 -155 0 -155 0 0 61 c0 116 48 169 155 169
42 0 70 -6 92 -20z"/>
<path d="M1673 1555 c-77 -39 -106 -89 -111 -189 -5 -90 8 -142 43 -184 23
-27 23 -31 8 -43 -22 -19 -43 -72 -43 -109 0 -37 24 -89 52 -111 21 -16 21
-16 -3 -48 -20 -28 -24 -44 -24 -110 0 -70 3 -81 28 -114 45 -59 98 -81 192
-81 114 0 175 34 210 117 46 111 -16 234 -134 267 -20 5 -73 10 -119 10 -75 0
-85 2 -107 25 -28 27 -30 42 -14 79 16 34 57 46 156 46 99 0 136 14 187 70 47
52 56 92 56 253 0 112 -3 137 -14 137 -8 0 -24 -16 -36 -35 -24 -38 -37 -44
-47 -19 -3 9 -29 27 -57 40 -71 33 -155 33 -223 -1z m227 -71 c45 -27 60 -63
60 -146 -1 -78 -17 -111 -67 -137 -38 -19 -153 -14 -191 9 -84 51 -83 219 2
271 41 25 156 26 196 3z m1 -624 c62 -28 78 -118 31 -171 -58 -65 -212 -58
-247 12 -26 48 -19 103 15 138 17 16 43 32 58 34 40 7 114 0 143 -13z"/>
<path d="M2325 1566 c-16 -7 -44 -25 -62 -40 l-32 -27 -23 35 c-47 72 -48 63
-48 -324 l0 -360 40 0 40 0 0 271 c0 301 4 323 64 360 43 26 140 26 183 -1 61
-37 63 -50 63 -355 l0 -275 46 0 45 0 -3 283 c-3 247 -6 287 -22 325 -20 47
-61 85 -113 107 -43 18 -138 19 -178 1z"/>
<path d="M2901 1567 c-74 -24 -131 -107 -131 -192 1 -45 34 -109 71 -137 19
-14 72 -38 119 -53 163 -53 200 -82 200 -157 0 -71 -54 -108 -156 -108 -104 0
-164 52 -164 140 0 29 -3 32 -22 26 -13 -3 -31 -6 -40 -6 -23 0 -25 -62 -4
-112 19 -46 85 -104 134 -119 59 -17 189 -8 237 17 124 64 139 245 27 319 -29
19 -219 95 -238 95 -2 0 -19 14 -39 31 -30 26 -35 38 -35 73 0 76 50 116 147
116 83 0 132 -35 148 -107 7 -34 29 -42 69 -27 33 13 5 105 -47 155 -56 54
-183 76 -276 46z"/>
<path d="M4100 1569 c-68 -28 -119 -92 -133 -166 -7 -37 -6 -38 46 -47 35 -7
37 -5 37 19 0 72 63 125 150 125 104 0 150 -53 150 -174 l0 -64 -116 -1 c-125
-2 -159 -11 -211 -55 -71 -60 -84 -197 -27 -278 41 -59 101 -88 181 -88 69 0
110 15 155 57 l26 25 24 -36 c13 -20 31 -36 41 -36 16 0 17 18 17 249 0 136
-5 273 -10 302 -13 67 -53 126 -105 153 -45 24 -182 33 -225 15z m250 -459 c0
-146 -37 -190 -158 -190 -66 0 -73 2 -105 33 -73 69 -58 186 30 232 19 10 60
15 131 15 l102 0 0 -90z"/>
<path d="M4725 1566 c-16 -7 -44 -25 -62 -40 l-32 -27 -23 35 c-48 74 -48 72
-48 -469 l0 -505 40 0 40 0 0 170 c0 156 6 191 25 160 16 -26 86 -50 145 -50
99 0 161 36 203 115 18 35 21 61 25 210 2 100 0 195 -7 230 -22 117 -100 185
-216 184 -33 0 -73 -6 -90 -13z m162 -86 c58 -35 63 -58 63 -270 0 -207 -5
-228 -56 -269 -39 -30 -153 -30 -196 0 -51 37 -58 69 -58 270 0 202 8 236 64
270 43 26 140 26 183 -1z"/>
<path d="M7160 1569 c-68 -29 -119 -92 -133 -166 -7 -37 -5 -39 46 -48 35 -7
37 -6 37 19 0 73 63 126 150 126 104 0 150 -53 150 -174 l0 -64 -116 -1 c-126
-2 -169 -13 -216 -58 -67 -64 -77 -197 -22 -275 41 -59 101 -88 181 -88 69 0
110 15 155 57 l26 25 24 -36 c13 -20 31 -36 40 -36 17 0 18 20 15 288 -2 276
-3 289 -24 329 -13 24 -43 56 -70 75 -43 29 -55 32 -133 35 -47 2 -96 -2 -110
-8z m250 -463 c0 -80 -3 -98 -23 -127 -30 -45 -60 -59 -132 -59 -43 0 -70 6
-93 20 -68 42 -82 153 -26 212 41 42 56 47 172 47 l102 1 0 -94z"/>
<path d="M8335 1560 c-55 -26 -80 -48 -104 -95 -41 -78 -22 -248 32 -294 15
-12 15 -16 -8 -42 -48 -57 -45 -147 6 -198 l30 -30 -23 -32 c-19 -26 -23 -43
-23 -107 0 -92 19 -126 93 -169 41 -24 58 -28 128 -28 72 0 86 3 130 30 148
91 115 308 -55 355 -20 5 -73 10 -119 10 -75 0 -85 2 -107 25 -28 27 -30 42
-14 79 16 34 28 38 154 46 122 7 162 24 204 85 34 50 41 90 41 237 0 113 -3
138 -14 138 -8 0 -24 -16 -36 -35 -12 -19 -23 -35 -25 -35 -1 0 -16 13 -33 28
-57 53 -181 69 -257 32z m209 -75 c49 -23 66 -61 66 -144 0 -116 -37 -151
-160 -151 -56 0 -78 5 -100 20 -83 59 -80 214 5 270 37 25 142 27 189 5z m7
-625 c34 -15 59 -60 59 -104 0 -73 -85 -125 -180 -109 -75 12 -109 47 -110
113 0 82 58 124 160 115 25 -2 57 -9 71 -15z"/>
<path d="M9755 1567 c-16 -8 -44 -26 -62 -41 l-32 -27 -23 35 c-47 72 -48 63
-48 -324 l0 -360 40 0 40 0 0 271 c0 302 4 321 65 359 45 28 138 28 183 0 58
-36 62 -59 62 -360 l0 -271 43 3 42 3 0 285 0 285 -25 45 c-14 24 -44 57 -67
74 -35 24 -54 30 -115 33 -48 2 -83 -1 -103 -10z"/>
<path d="M10615 1567 c-16 -8 -44 -26 -62 -41 l-32 -27 -23 35 c-47 72 -48 63
-48 -324 l0 -360 40 0 40 0 0 271 c0 302 4 321 65 359 44 27 138 28 182 0 61
-37 63 -50 63 -355 l0 -275 46 0 46 0 -4 283 c-3 278 -3 283 -28 332 -37 75
-90 107 -182 112 -48 2 -83 -1 -103 -10z"/>
<path d="M11195 1572 c-42 -14 -86 -48 -113 -86 -23 -33 -28 -52 -31 -119 -4
-91 9 -143 44 -185 23 -27 23 -31 8 -43 -22 -19 -43 -72 -43 -109 0 -36 33
-105 56 -118 16 -9 15 -13 -7 -43 -20 -29 -24 -46 -24 -110 0 -67 3 -80 28
-112 45 -59 98 -81 193 -82 72 0 86 3 130 30 83 51 116 152 79 242 -22 52 -42
72 -100 99 -41 20 -66 24 -143 24 -85 0 -95 2 -117 25 -28 27 -30 42 -14 79
16 34 56 46 156 46 97 0 141 17 191 74 43 49 52 91 52 249 0 112 -3 137 -14
137 -8 0 -24 -16 -36 -35 -23 -37 -35 -43 -43 -21 -3 7 -29 25 -58 40 -41 20
-67 26 -113 25 -34 -1 -70 -4 -81 -7z m193 -89 c48 -27 62 -61 62 -145 -1 -78
-17 -111 -67 -137 -38 -19 -153 -14 -191 9 -84 51 -83 219 2 271 41 25 152 26
194 2z m3 -623 c54 -25 75 -104 42 -161 -22 -37 -65 -54 -134 -52 -94 2 -138
38 -139 115 0 39 5 52 30 77 17 16 40 32 53 35 34 7 119 -1 148 -14z"/>
<path d="M14234 1555 c-33 -16 -62 -41 -80 -68 l-29 -42 -3 -225 c-3 -220 -3
-226 21 -270 13 -25 43 -58 66 -75 37 -26 53 -30 123 -34 128 -5 194 25 241
113 21 39 22 54 22 251 0 206 -1 212 -26 260 -15 30 -42 62 -67 79 -37 26 -52
30 -130 34 -78 3 -92 1 -138 -23z m213 -75 c58 -35 63 -58 63 -269 0 -210 -7
-243 -60 -275 -43 -25 -153 -22 -192 5 -51 37 -58 69 -58 270 0 202 8 236 64
270 43 26 140 26 183 -1z"/>
<path d="M14885 1566 c-16 -7 -44 -25 -62 -40 l-32 -27 -23 35 c-47 72 -48 63
-48 -324 l0 -360 40 0 40 0 0 270 c0 301 4 324 62 360 45 27 140 28 185 0 61
-37 63 -50 63 -355 l0 -275 45 0 45 0 0 249 c0 136 -5 273 -10 302 -21 111
-102 179 -215 178 -33 0 -73 -6 -90 -13z"/>
<path d="M15434 1555 c-33 -16 -62 -41 -80 -68 l-29 -42 -3 -225 c-3 -220 -3
-226 21 -270 13 -25 43 -58 66 -75 37 -26 53 -30 123 -34 129 -5 195 26 240
113 19 36 22 62 26 211 5 197 -6 272 -46 329 -40 57 -91 80 -187 84 -70 3 -86
0 -131 -23z m213 -75 c58 -35 63 -58 63 -269 0 -210 -7 -243 -60 -275 -43 -25
-153 -22 -192 5 -51 37 -58 69 -58 270 0 202 8 236 64 270 43 26 140 26 183
-1z"/>
<path d="M16085 1566 c-16 -7 -44 -25 -62 -40 l-32 -27 -23 35 c-47 72 -48 63
-48 -324 l0 -360 40 0 40 0 0 271 c0 232 2 276 17 306 23 49 66 73 131 73 59
0 96 -17 127 -58 19 -25 20 -45 23 -309 l3 -283 40 0 39 0 0 270 c0 301 4 324
62 360 41 25 128 27 168 4 58 -35 60 -45 60 -353 l0 -281 45 0 45 0 0 280 c0
305 -3 325 -58 384 -83 88 -240 85 -318 -7 l-25 -30 -37 36 c-20 20 -54 43
-74 52 -45 18 -122 19 -163 1z"/>
<path d="M3636 1389 l-148 -180 59 -72 c33 -40 97 -119 143 -176 46 -56 89
-105 96 -108 6 -2 32 -3 58 -1 l46 3 -145 173 c-80 94 -145 176 -145 182 0 5
60 80 133 167 72 87 138 166 146 176 12 16 9 17 -41 17 l-55 0 -147 -181z"/>
<path d="M8839 1553 c-2 -10 -3 -172 -1 -360 l3 -343 39 0 40 0 0 360 0 360
-39 0 c-29 0 -40 -4 -42 -17z"/>
<path d="M9004 1548 c3 -13 59 -174 124 -358 110 -310 120 -335 142 -335 21 0
32 26 146 345 68 190 123 351 123 358 1 9 -11 12 -40 10 l-42 -3 -91 -267
c-50 -148 -93 -268 -96 -268 -3 0 -29 71 -59 158 -30 86 -72 208 -94 270 l-39
112 -40 0 c-37 0 -40 -2 -34 -22z"/>
<path d="M10218 1553 c-2 -9 -2 -171 0 -360 l3 -343 39 0 40 0 0 360 0 360
-39 0 c-29 0 -40 -4 -43 -17z"/>
<path d="M13853 1448 c-55 -68 -122 -149 -148 -181 -43 -52 -46 -59 -33 -75 8
-9 74 -90 147 -179 l133 -163 55 0 c52 0 55 1 41 18 -123 144 -278 334 -278
341 0 5 60 81 133 168 72 87 138 166 146 176 12 16 9 17 -41 17 l-55 0 -100
-122z"/>
<path d="M16908 1563 c-2 -5 -3 -19 -2 -33 1 -14 2 -172 3 -352 l1 -328 40 0
40 0 0 360 0 360 -39 0 c-22 0 -41 -3 -43 -7z"/>
</g>
</svg>
